<svg width="24" height="24" viewBox="0 0 24 24" fill="none" xmlns="http://www.w3.org/2000/svg">
<path fill-rule="evenodd" clip-rule="evenodd" d="M12 1C10.1435 1 8.36299 1.7375 7.05024 3.05025C5.73748 4.36301 4.99999 6.14348 4.99999 8C4.99999 11.3527 4.28292 13.4346 3.62209 14.6461C3.2903 15.2544 2.96721 15.6535 2.74278 15.8904C2.63031 16.0091 2.54192 16.0878 2.48871 16.1322C2.46209 16.1544 2.44423 16.168 2.43653 16.1737L2.43368 16.1758C2.07519 16.4221 1.91655 16.8725 2.04289 17.2898C2.17059 17.7115 2.55932 18 2.99999 18H21C21.4407 18 21.8294 17.7115 21.9571 17.2898C22.0834 16.8725 21.9248 16.4221 21.5663 16.1758L21.5634 16.1737C21.5557 16.168 21.5379 16.1544 21.5113 16.1322C21.458 16.0878 21.3697 16.0091 21.2572 15.8904C21.0328 15.6535 20.7097 15.2544 20.3779 14.6461C19.7171 13.4346 19 11.3527 19 8C19 6.14349 18.2625 4.36301 16.9497 3.05025C15.637 1.7375 13.8565 1 12 1ZM18.6221 15.6039C18.6982 15.7434 18.7746 15.8753 18.8507 16H5.14931C5.2254 15.8753 5.30178 15.7434 5.37788 15.6039C6.21705 14.0654 6.99999 11.6473 6.99999 8C6.99999 6.67392 7.52677 5.40215 8.46445 4.46447C9.40213 3.52678 10.6739 3 12 3C13.3261 3 14.5978 3.52678 15.5355 4.46447C16.4732 5.40215 17 6.67392 17 8C17 11.6473 17.7829 14.0654 18.6221 15.6039ZM11.135 20.4982C10.8579 20.0205 10.246 19.8579 9.76823 20.135C9.29051 20.4121 9.12789 21.024 9.40501 21.5018C9.66872 21.9564 10.0472 22.3337 10.5027 22.5961C10.9581 22.8584 11.4744 22.9965 12 22.9965C12.5256 22.9965 13.0419 22.8584 13.4973 22.5961C13.9528 22.3337 14.3313 21.9564 14.595 21.5018C14.8721 21.024 14.7095 20.4121 14.2318 20.135C13.7541 19.8579 13.1421 20.0205 12.865 20.4982C12.7771 20.6498 12.6509 20.7756 12.4991 20.863C12.3473 20.9504 12.1752 20.9965 12 20.9965C11.8248 20.9965 11.6527 20.9504 11.5009 20.863C11.3491 20.7756 11.2229 20.6498 11.135 20.4982Z" fill="#3A474E"/>
</svg>
